<mxfile host="app.diagrams.net" modified="2024-04-23T15:07:44.353Z" agent="Mozilla/5.0 (Windows NT 10.0; Win64; x64) AppleWebKit/537.36 (KHTML, like Gecko) Chrome/124.0.0.0 Safari/537.36" version="24.2.5" etag="jRbS5I_GT8eqKB6qamO2" type="github">
  <diagram name="PÃ¡gina-1" id="0PtSeG_YwJprzOCxYD6w">
    <mxGraphModel>
      <root>
        <mxCell id="0" />
        <mxCell id="1" parent="0" />
      </root>
    </mxGraphModel>
  </diagram>
</mxfile>
